<?xml version="1.0" encoding="UTF-8" standalone="no"?>
<svg width="91px" height="186px" viewBox="0 0 91 186" version="1.1" xmlns="http://www.w3.org/2000/svg" xmlns:xlink="http://www.w3.org/1999/xlink" xmlns:sketch="http://www.bohemiancoding.com/sketch/ns">
    <!-- Generator: Sketch 3.3.3 (12081) - http://www.bohemiancoding.com/sketch -->
    <title>Wave Logo Dark</title>
    <desc>Created with Sketch.</desc>
    <defs></defs>
    <g id="Main" stroke="none" stroke-width="1" fill="none" fill-rule="evenodd" sketch:type="MSPage">
        <g id="Wave-Logo-Dark" sketch:type="MSLayerGroup">
            <g id="Logo" transform="translate(10.000000, 0.000000)" sketch:type="MSShapeGroup">
                <path d="M54.0583143,45.7365269 L54.0583143,61.0451949 C53.7022496,61.0451949 53.319337,61.0345921 52.9370845,61.0469621 C44.0590133,61.3312495 35.4690069,62.9329341 27.3924114,66.7863872 C22.6748839,69.0370512 18.4091492,71.9241038 15.1695764,76.1236939 C9.66729812,83.2558403 9.91311041,91.5763832 15.7963208,98.418499 C19.9047091,103.196604 25.1668968,106.248663 30.9383143,108.498443 C38.0505861,111.270632 45.4669874,112.487524 53.0671428,112.711508 C53.4262884,112.72211 53.7823531,112.840508 54.1399583,112.908764 C54.1203726,113.058749 54.1010069,113.208735 54.0814211,113.35872 C53.2898483,113.35872 52.4973952,113.381693 51.7067026,113.355186 C42.2938742,113.039532 33.1365408,111.421501 24.3891881,107.822073 C17.775803,105.10091 11.7370069,101.472987 6.89536284,96.0933945 C2.43597126,91.1387971 -0.277206737,85.4382488 0.0225214182,78.6082821 C0.287919476,72.5657937 2.8923855,67.4989834 6.87269618,63.1005908 C12.328981,57.071356 19.1945603,53.2225416 26.7141719,50.4479228 C35.085214,47.3594172 43.7702884,45.9814957 52.663324,45.8008064 C53.1395441,45.7910872 53.6159842,45.7778337 54.0935247,45.7672309 C54.094845,45.7685562 54.0583143,45.7365269 54.0583143,45.7365269" id="Fill-1" fill="#4FAEE0"></path>
                <path d="M53.8045271,30.4068058 L38.7648637,30.4068058 C38.0617569,15.4120247 51.1694721,-0.177396492 68.9106501,0.00152566321 L68.9106501,14.8456587 C66.8224559,15.4140127 64.6728637,15.696533 62.7932909,16.5666248 C56.9611355,19.2663613 54.062663,24.0329801 53.7730579,30.4375097 L53.8045271,30.4068058" id="Fill-2" fill="#404040"></path>
                <path d="M54.4026369,30.7494877 L69.5259249,30.7494877 L69.5259249,45.9216447 C64.5036078,45.9216447 59.4370576,45.9216447 54.368967,45.9205403 C54.3676466,45.9194358 54.4041774,45.9514651 54.402857,45.9501397 C54.4125398,40.8720639 54.423543,35.7953134 54.4343262,30.7185629 C54.4341062,30.7187838 54.4026369,30.7494877 54.4026369,30.7494877" id="Fill-3" fill="#FFC700"></path>
            </g>
            <g id="Text" transform="translate(0.000000, 152.000000)" fill="#656D78" sketch:type="MSShapeGroup">
                <path d="M88.256,15.28 L88.256,18.64 L80.048,18.64 L80.048,30.592 L90.128,30.592 L90.128,34 L76.304,34 L76.304,0.4 L90.128,0.4 L90.128,3.808 L80.048,3.808 L80.048,15.28 L88.256,15.28 L88.256,15.28 Z" id="E"></path>
                <path d="M56.072,0.4 L61.544,29.632 L66.968,0.4 L70.424,0.4 L64.136,34 L58.616,34 L52.28,0.4 L56.072,0.4 L56.072,0.4 Z" id="WAV"></path>
                <path d="M34.976,27.232 L33.68,34 L30.224,34 L36.656,0.4 L42.08,0.4 L48.512,34 L44.768,34 L43.472,27.232 L34.976,27.232 L34.976,27.232 Z M35.456,24.016 L42.944,24.016 L39.152,4.624 L35.456,24.016 L35.456,24.016 Z" id="Path"></path>
                <path d="M9.848,34 L4.712,34 L0.104,0.4 L3.752,0.4 L7.688,29.008 L11.432,0.448 L15.128,0.448 L18.824,29.056 L22.616,0.4 L25.88,0.4 L21.32,34 L16.376,34 L13.16,11.2 L9.848,34 L9.848,34 Z" id="Path"></path>
            </g>
        </g>
    </g>
</svg>