<?xml version="1.0" encoding="UTF-8" standalone="no"?>
<svg width="83px" height="32px" viewBox="0 0 83 32" version="1.1" xmlns="http://www.w3.org/2000/svg" xmlns:xlink="http://www.w3.org/1999/xlink" xmlns:sketch="http://www.bohemiancoding.com/sketch/ns">
    <!-- Generator: Sketch 3.3.3 (12081) - http://www.bohemiancoding.com/sketch -->
    <title>WaveLogo</title>
    <desc>Created with Sketch.</desc>
    <defs></defs>
    <g id="Page-1" stroke="none" stroke-width="1" fill="none" fill-rule="evenodd" sketch:type="MSPage">
        <g id="WaveLogo" sketch:type="MSArtboardGroup">
            <path d="M37.2028918,26.5504005 L34.2068918,26.5504005 L31.5188918,6.95040049 L33.6468918,6.95040049 L35.9428918,23.6384005 L38.1268918,6.97840049 L40.2828918,6.97840049 L42.4388918,23.6664005 L44.6508918,6.95040049 L46.5548918,6.95040049 L43.8948918,26.5504005 L41.0108918,26.5504005 L39.1348918,13.2504005 L37.2028918,26.5504005" id="Fill-1" fill="#0B0B0A" sketch:type="MSShapeGroup"></path>
            <path d="M51.0908918,22.6024005 L50.3348918,26.5504005 L48.3178918,26.5504005 L52.0698918,6.95040049 L55.2338918,6.95040049 L58.9858918,26.5504005 L56.8028918,26.5504005 L56.0468918,22.6024005 L51.0908918,22.6024005 L51.0908918,22.6024005 Z M51.3708918,20.7264005 L55.7378918,20.7264005 L53.5268918,9.41440049 L51.3708918,20.7264005 L51.3708918,20.7264005 Z" id="Fill-2" fill="#0B0B0A" sketch:type="MSShapeGroup"></path>
            <path d="M62.6268918,6.95040049 L65.8178918,24.0024005 L68.9818918,6.95040049 L70.9978918,6.95040049 L67.3298918,26.5504005 L64.1098918,26.5504005 L60.4138918,6.95040049 L62.6268918,6.95040049" id="Fill-3" fill="#0B0B0A" sketch:type="MSShapeGroup"></path>
            <path d="M80.6308918,15.6304005 L80.6308918,17.5904005 L75.8428918,17.5904005 L75.8428918,24.5614005 L81.7228918,24.5614005 L81.7228918,26.5504005 L73.6578918,26.5504005 L73.6578918,6.95040049 L81.7228918,6.95040049 L81.7228918,8.93740049 L75.8428918,8.93740049 L75.8428918,15.6304005 L80.6308918,15.6304005" id="Fill-4" fill="#0B0B0A" sketch:type="MSShapeGroup"></path>
            <path d="M15.0088918,9.00840049 L18.9998918,9.00840049 L18.9998918,12.9924005 L14.9998918,12.9924005 C14.9998918,12.9924005 15.0098918,13.0004005 15.0088918,13.0004005 C15.0118918,11.6664005 15.0148918,10.3334005 15.0178918,9.00040049 L15.0088918,9.00840049 L15.0088918,9.00840049 Z M14.9938918,8.99240049 L11.0068918,8.99240049 C10.8208918,5.05140049 14.2958918,0.953400486 18.9998918,1.00040049 L18.9998918,4.90240049 C18.4458918,5.05240049 17.8768918,5.12640049 17.3778918,5.35440049 C15.8318918,6.06440049 15.0628918,7.31640049 14.9858918,9.00040049 L14.9938918,8.99240049 L14.9938918,8.99240049 Z M14.9778918,13.0004005 L14.9778918,17.0744005 C14.8868918,17.0744005 14.7868918,17.0714005 14.6888918,17.0754005 C12.3928918,17.1504005 10.1718918,17.5774005 8.08289179,18.6034005 C6.86289179,19.2014005 5.75989179,19.9704005 4.92289179,21.0884005 C3.49989179,22.9854005 3.56389179,25.2004005 5.08489179,27.0214005 C6.14689179,28.2934005 7.50789179,29.1054005 8.99989179,29.7044005 C10.8388918,30.4414005 12.7578918,30.7664005 14.7228918,30.8254005 C14.8148918,30.8284005 14.9078918,30.8594005 14.9998918,30.8784005 C14.9948918,30.9184005 14.9898918,30.9584005 14.9838918,30.9974005 C14.7798918,30.9974005 14.5748918,31.0044005 14.3708918,30.9974005 C11.9358918,30.9124005 9.56889179,30.4824005 7.30689179,29.5244005 C5.59689179,28.8004005 4.03489179,27.8344005 2.78289179,26.4024005 C1.62989179,25.0844005 0.92789179,23.5664005 1.00589179,21.7494005 C1.07389179,20.1414005 1.74789179,18.7924005 2.77689179,17.6214005 C4.18789179,16.0174005 5.96289179,14.9924005 7.90789179,14.2544005 C10.0728918,13.4324005 12.3178918,13.0654005 14.6178918,13.0184005 C14.7408918,13.0154005 14.8648918,13.0114005 14.9878918,13.0084005 C14.9878918,13.0094005 14.9778918,13.0004005 14.9778918,13.0004005 L14.9778918,13.0004005 Z" id="Fill-5" fill="#0A0B09" sketch:type="MSShapeGroup"></path>
        </g>
    </g>
</svg>