<?xml version="1.0" encoding="UTF-8" standalone="no"?>
<svg width="48px" height="48px" viewBox="0 0 48 48" version="1.1" xmlns="http://www.w3.org/2000/svg" xmlns:xlink="http://www.w3.org/1999/xlink" xmlns:sketch="http://www.bohemiancoding.com/sketch/ns">
    <!-- Generator: Sketch 3.3.3 (12081) - http://www.bohemiancoding.com/sketch -->
    <title>svg</title>
    <desc>Created with Sketch.</desc>
    <defs></defs>
    <g id="Page-1" stroke="none" stroke-width="1" fill="none" fill-rule="evenodd" sketch:type="MSPage">
        <g id="svg" sketch:type="MSArtboardGroup" fill="#434A54">
            <path d="M30,19 L18,19 C16.89,19 16,19.9 16,21 L16,45 C16,46.1 16.89,47 18,47 L30,47 C31.11,47 32,46.1 32,45 L32,21 C32,19.9 31.11,19 30,19 L30,19 Z M14.1,13.1 L16.93,15.93 C18.74,14.12 21.24,13 24,13 C26.76,13 29.26,14.12 31.07,15.93 L33.9,13.1 C31.37,10.57 27.87,9 24,9 C20.13,9 16.63,10.57 14.1,13.1 L14.1,13.1 Z M24,1 C17.93,1 12.43,3.46 8.44,7.44 L11.27,10.27 C14.53,7.01 19.03,5 24,5 C28.97,5 33.47,7.01 36.73,10.27 L39.56,7.44 C35.57,3.46 30.07,1 24,1 Z M18.8133333,24.9193965 C18.8133333,24.3670889 19.2590625,23.919355 19.8079721,23.919355 L28.1920279,23.919355 C28.7413517,23.919355 29.1866667,24.3615673 29.1866667,24.9193965 L29.1866667,28.1059802 C29.1866667,28.6582879 28.7409375,29.1060217 28.1920279,29.1060217 L19.8079721,29.1060217 C19.2586483,29.1060217 18.8133333,28.6638094 18.8133333,28.1059802 L18.8133333,24.9193965 Z" id="Shape" sketch:type="MSShapeGroup"></path>
        </g>
    </g>
</svg>