<?xml version="1.0" encoding="UTF-8" standalone="no"?>
<svg width="48px" height="48px" viewBox="0 0 48 48" version="1.1" xmlns="http://www.w3.org/2000/svg" xmlns:xlink="http://www.w3.org/1999/xlink" xmlns:sketch="http://www.bohemiancoding.com/sketch/ns">
    <!-- Generator: Sketch 3.3.3 (12081) - http://www.bohemiancoding.com/sketch -->
    <title>svg</title>
    <desc>Created with Sketch.</desc>
    <defs></defs>
    <g id="Page-1" stroke="none" stroke-width="1" fill="none" fill-rule="evenodd" sketch:type="MSPage">
        <g id="svg" sketch:type="MSArtboardGroup" fill="#4FAEE0">
            <g id="BT-w/-3-bars" sketch:type="MSLayerGroup" transform="translate(1.000000, 4.000000)">
                <path d="M17.5369187,15.0714173 L20.5687368,18.102932 C28.1028046,10.5696179 40.3210313,10.5696179 47.8550992,18.102932 L50.8869172,15.0714173 C41.6777699,5.86319127 26.746066,5.86319127 17.5369187,15.0714173 L17.5369187,15.0714173 Z M29.6641909,27.1974762 L34.211918,31.7447483 L38.759645,27.1974762 C36.2508156,24.6888977 32.1730203,24.6888977 29.6641909,27.1974762 L29.6641909,27.1974762 Z M23.6005548,21.1344467 L26.6323729,24.1659614 C30.8162818,19.9824711 37.6075542,19.9824711 41.7914631,24.1659614 L44.8232811,21.1344467 C38.9642928,15.2760445 29.4595432,15.2760445 23.6005548,21.1344467 L23.6005548,21.1344467 Z" id="Shape-Copy" sketch:type="MSShapeGroup" transform="translate(34.211918, 19.954998) rotate(-270.000000) translate(-34.211918, -19.954998) "></path>
                <path d="M25.41,11.41 L14,0 L12,0 L12,15.17 L2.83,6 L0,8.83 L11.17,20 L0,31.17 L2.83,34 L12,24.83 L12,40 L14,40 L25.41,28.59 L16.83,20 L25.41,11.41 L25.41,11.41 Z M16,7.66 L19.76,11.42 L16,15.17 L16,7.66 L16,7.66 Z M19.76,28.59 L16,32.34 L16,24.82 L19.76,28.59 L19.76,28.59 Z" id="Shape-Copy-2" sketch:type="MSShapeGroup"></path>
            </g>
        </g>
    </g>
</svg>