<?xml version="1.0" encoding="UTF-8" standalone="no"?>
<svg width="48px" height="48px" viewBox="0 0 48 48" version="1.1" xmlns="http://www.w3.org/2000/svg" xmlns:xlink="http://www.w3.org/1999/xlink" xmlns:sketch="http://www.bohemiancoding.com/sketch/ns">
    <!-- Generator: Sketch 3.3.3 (12081) - http://www.bohemiancoding.com/sketch -->
    <title>58 - Settings</title>
    <desc>Created with Sketch.</desc>
    <defs></defs>
    <g id="Page-1" stroke="none" stroke-width="1" fill="none" fill-rule="evenodd" sketch:type="MSPage">
        <g id="58---Settings" sketch:type="MSArtboardGroup" fill="#FFFFFF">
            <path d="M41.88,22 C40.96,13.66 34.34,7.04 26,6.12 L26,2 L22,2 L22,6.12 C13.66,7.04 7.04,13.66 6.12,22 L2,22 L2,26 L6.12,26 C7.04,34.34 13.66,40.96 22,41.88 L22,46 L26,46 L26,41.88 C34.34,40.96 40.96,34.34 41.88,26 L46,26 L46,22 L41.88,22 L41.88,22 Z M24,38 C16.27,38 10,31.73 10,24 C10,16.27 16.27,10 24,10 C31.73,10 38,16.27 38,24 C38,31.73 31.73,38 24,38 L24,38 Z" id="Shape" sketch:type="MSShapeGroup"></path>
        </g>
    </g>
</svg>