<?xml version="1.0" encoding="UTF-8" standalone="no"?>
<svg width="36px" height="36px" viewBox="0 0 36 36" version="1.1" xmlns="http://www.w3.org/2000/svg" xmlns:xlink="http://www.w3.org/1999/xlink" xmlns:sketch="http://www.bohemiancoding.com/sketch/ns">
    <!-- Generator: Sketch 3.3.3 (12081) - http://www.bohemiancoding.com/sketch -->
    <title>G+</title>
    <desc>Created with Sketch.</desc>
    <defs></defs>
    <g id="Full" stroke="none" stroke-width="1" fill="none" fill-rule="evenodd" sketch:type="MSPage">
        <g id="Sidebar-Copy" sketch:type="MSArtboardGroup" transform="translate(-206.000000, -603.000000)" fill="#FFFFFF">
            <g id="G+" sketch:type="MSLayerGroup" transform="translate(206.000000, 603.000000)">
                <path d="M18.0528696,0.0886699507 C8.14156612,0.0886699507 0.10573913,8.10846732 0.10573913,18 C0.10573913,27.8915327 8.14156612,35.91133 18.0528696,35.91133 C27.964173,35.91133 36,27.8915327 36,18 C36,8.10625782 27.964173,0.0886699507 18.0528696,0.0886699507 L18.0528696,0.0886699507 Z M13.0455969,30.0520488 C9.07258882,30.0520488 5.72095137,28.437793 5.72095137,25.858578 C5.72095137,23.2412861 8.77865545,20.7135522 12.7517373,20.7157617 L13.9923383,20.7045669 C13.4494139,20.178413 13.0187348,19.5313997 13.0187348,18.7320787 C13.0187348,18.257406 13.1712731,17.8029132 13.3821849,17.3976922 L12.7203736,17.4200817 C9.45625932,17.4200817 7.27120453,15.1028389 7.27120453,12.2302768 C7.27120453,9.42046436 10.2885417,6.99569291 13.496644,6.99569291 L20.6530324,6.99569291 L19.0467673,8.15096324 L16.7786909,8.15096324 C18.2840017,8.7285984 19.0849203,10.4794008 19.0849203,12.2750559 C19.0849203,13.7818566 18.2481364,15.0804494 17.065835,16.0028391 C15.9104694,16.9051225 15.6929159,17.2812519 15.6929159,18.0469886 C15.6929159,18.7007776 16.9313031,19.8112689 17.5773956,20.2702542 C19.4685908,21.6046408 20.0765304,22.8427671 20.0765304,24.9093061 C20.0763828,27.4885211 17.5750341,30.0520488 13.0455969,30.0520488 L13.0455969,30.0520488 Z M27.0264348,15.8036165 L27.0264348,20.2747469 L24.7852943,20.2747469 L24.7852943,15.8036165 L20.2962978,15.8036165 L20.2962978,13.5221675 L24.7852943,13.5221675 L24.7852943,9.04433498 L27.0264348,9.04433498 L27.0264348,13.5221675 L31.5132174,13.5221675 L31.5132174,15.8036165 L27.0264348,15.8036165 L27.0264348,15.8036165 Z" id="Shape" sketch:type="MSShapeGroup"></path>
                <path d="M15.2831213,21.6603935 C14.7401969,21.4857699 14.1412606,21.3805244 13.5018836,21.3738222 C10.7559717,21.3447306 8.29720395,23.0440518 8.29720395,25.0882012 C8.29720395,27.1748466 10.2803502,28.9077521 13.026262,28.9077521 C16.8870987,28.9077521 18.2309417,27.2778089 18.2309417,25.1956562 C18.2309417,24.9448788 18.1995042,24.6985939 18.1434185,24.4590849 C17.8428434,23.2768587 16.7727133,22.6925214 15.2831213,21.6603935 L15.2831213,21.6603935 Z" id="Shape" sketch:type="MSShapeGroup"></path>
                <path d="M16.495015,12.3787943 C16.1764334,9.96521761 14.4243455,8.0263137 12.5825205,7.97033987 C10.7406954,7.91657554 9.50459603,9.76371183 9.82317759,12.1817075 C10.1417592,14.5974937 11.8938471,16.6013567 13.737886,16.6550474 C15.5774233,16.7110949 16.8158105,14.7968636 16.495015,12.3787943 L16.495015,12.3787943 Z" id="Shape" sketch:type="MSShapeGroup"></path>
            </g>
        </g>
    </g>
</svg>