<?xml version="1.0" encoding="UTF-8" standalone="no"?>
<svg width="36px" height="36px" viewBox="0 0 36 36" version="1.1" xmlns="http://www.w3.org/2000/svg" xmlns:xlink="http://www.w3.org/1999/xlink" xmlns:sketch="http://www.bohemiancoding.com/sketch/ns">
    <!-- Generator: Sketch 3.3.3 (12081) - http://www.bohemiancoding.com/sketch -->
    <title>Shape</title>
    <desc>Created with Sketch.</desc>
    <defs></defs>
    <g id="Full" stroke="none" stroke-width="1" fill="none" fill-rule="evenodd" sketch:type="MSPage">
        <g id="Sidebar-Copy" sketch:type="MSArtboardGroup" transform="translate(-90.000000, -603.000000)" fill="#FFFFFF">
            <path d="M108,603 C98.0594993,603 90,611.059499 90,621 C90,630.940501 98.0594993,639 108,639 C117.940501,639 126,630.940501 126,621 C126,611.057279 117.940501,603 108,603 L108,603 Z M116.954999,616.958963 L116.96847,617.532723 C116.96847,623.391701 112.51125,630.141738 104.359455,630.141738 C101.857473,630.141738 99.5286847,629.408255 97.5667116,628.150455 C97.9132469,628.190941 98.2664435,628.213441 98.624229,628.213441 C100.700998,628.213441 102.611235,627.504679 104.127716,626.316675 C102.188243,626.280704 100.552452,624.998183 99.9877218,623.238713 C100.259947,623.290449 100.534466,623.315244 100.822456,623.315244 C101.227463,623.315244 101.618925,623.263508 101.990181,623.162256 C99.962927,622.752734 98.4351963,620.964029 98.4351963,618.817538 L98.4351963,618.761287 C99.0336765,619.094278 99.715423,619.292266 100.44217,619.317061 C99.2541654,618.522813 98.4711673,617.166055 98.4711673,615.629295 C98.4711673,614.817061 98.6894357,614.056563 99.0696475,613.401832 C101.254404,616.083817 104.521398,617.847802 108.20465,618.03232 C108.128119,617.708285 108.089927,617.368559 108.089927,617.022097 C108.089927,614.576366 110.074401,612.591819 112.522426,612.591819 C113.795918,612.591819 114.947951,613.129533 115.757891,613.991283 C116.765893,613.791 117.715423,613.422038 118.572657,612.91578 C118.241887,613.950797 117.539935,614.819282 116.624155,615.368246 C117.517434,615.26248 118.374669,615.021711 119.168917,614.670735 C118.574952,615.557205 117.821189,616.337983 116.954999,616.958963 L116.954999,616.958963 Z" id="Shape" sketch:type="MSShapeGroup"></path>
        </g>
    </g>
</svg>