<?xml version="1.0" encoding="UTF-8" standalone="no"?>
<svg width="36px" height="36px" viewBox="0 0 36 36" version="1.1" xmlns="http://www.w3.org/2000/svg" xmlns:xlink="http://www.w3.org/1999/xlink" xmlns:sketch="http://www.bohemiancoding.com/sketch/ns">
    <!-- Generator: Sketch 3.3.3 (12081) - http://www.bohemiancoding.com/sketch -->
    <title>Shape</title>
    <desc>Created with Sketch.</desc>
    <defs></defs>
    <g id="Full" stroke="none" stroke-width="1" fill="none" fill-rule="evenodd" sketch:type="MSPage">
        <g id="Sidebar-Copy" sketch:type="MSArtboardGroup" transform="translate(-148.000000, -603.000000)" fill="#FFFFFF">
            <path d="M166,603 C156.059499,603 148,611.059499 148,621 C148,630.940501 156.059499,639 166,639 C175.940501,639 184,630.940501 184,621 C184,611.057279 175.940501,603 166,603 L166,603 Z M161.5,629.718745 L157,629.718745 L157,613.968708 L161.5,613.968708 L161.5,629.718745 L161.5,629.718745 Z M159.38948,613.003487 C158.223976,613.003487 157.281255,612.058471 157.281255,610.892967 C157.281255,609.727463 158.22627,608.782447 159.38948,608.782447 C160.554984,608.784668 161.5,609.729683 161.5,610.892967 C161.5,612.058471 160.554984,613.003487 159.38948,613.003487 L159.38948,613.003487 Z M177.249963,629.718745 L172.749963,629.718745 L172.749963,619.980748 C172.749963,618.839964 172.423708,618.041275 171.021949,618.041275 C168.697676,618.041275 168.249963,619.980748 168.249963,619.980748 L168.249963,629.718745 L163.749963,629.718745 L163.749963,613.968708 L168.249963,613.968708 L168.249963,615.473939 C168.893444,614.981225 170.499926,613.970929 172.749963,613.970929 C174.207972,613.970929 177.249963,614.843928 177.249963,620.117897 L177.249963,629.718745 L177.249963,629.718745 Z" id="Shape" sketch:type="MSShapeGroup"></path>
        </g>
    </g>
</svg>