<?xml version="1.0" encoding="UTF-8" standalone="no"?>
<svg width="36px" height="36px" viewBox="0 0 36 36" version="1.1" xmlns="http://www.w3.org/2000/svg" xmlns:xlink="http://www.w3.org/1999/xlink" xmlns:sketch="http://www.bohemiancoding.com/sketch/ns">
    <!-- Generator: Sketch 3.3.3 (12081) - http://www.bohemiancoding.com/sketch -->
    <title>Shape</title>
    <desc>Created with Sketch.</desc>
    <defs></defs>
    <g id="Full" stroke="none" stroke-width="1" fill="none" fill-rule="evenodd" sketch:type="MSPage">
        <g id="Sidebar-Copy" sketch:type="MSArtboardGroup" transform="translate(-32.000000, -603.000000)" fill="#FFFFFF">
            <path d="M50,603 C40.0594993,603 32,611.059499 32,621 C32,630.940501 40.0594993,639 50,639 C59.9405007,639 68,630.940501 68,621 C68,611.057279 59.9405007,603 50,603 L50,603 Z M54.6529877,620.997706 L51.7032188,620.999926 L51.7009984,631.799882 L47.6532262,631.799882 L47.6532262,621 L44.9532558,621 L44.9532558,617.278483 L47.6532262,617.276263 L47.6487113,615.084771 C47.6487113,612.047295 48.4721953,610.200044 52.0474597,610.200044 L55.0264643,610.200044 L55.0264643,613.923782 L53.1634484,613.923782 C51.7707199,613.923782 51.7032188,614.443511 51.7032188,615.413247 L51.6987039,617.276263 L55.0466702,617.276263 L54.6529877,620.997706 L54.6529877,620.997706 Z" id="Shape" sketch:type="MSShapeGroup"></path>
        </g>
    </g>
</svg>