<?xml version="1.0" encoding="UTF-8" standalone="no"?>
<svg width="48px" height="48px" viewBox="0 0 48 48" version="1.1" xmlns="http://www.w3.org/2000/svg" xmlns:xlink="http://www.w3.org/1999/xlink" xmlns:sketch="http://www.bohemiancoding.com/sketch/ns">
    <!-- Generator: Sketch 3.3.3 (12081) - http://www.bohemiancoding.com/sketch -->
    <title>svg</title>
    <desc>Created with Sketch.</desc>
    <defs></defs>
    <g id="Page-1" stroke="none" stroke-width="1" fill="none" fill-rule="evenodd" sketch:type="MSPage">
        <g id="svg" sketch:type="MSArtboardGroup" fill="#434A54">
            <path d="M34.4545455,1.02090909 L13.5454545,1 C11.235,1 9.36363636,2.87136364 9.36363636,5.18181818 L9.36363636,42.8181818 C9.36363636,45.1286364 11.235,47 13.5454545,47 L34.4545455,47 C36.765,47 38.6363636,45.1286364 38.6363636,42.8181818 L38.6363636,5.18181818 C38.6363636,2.87136364 36.765,1.02090909 34.4545455,1.02090909 L34.4545455,1.02090909 Z M34.4545455,38.6363636 L13.5454545,38.6363636 L13.5454545,9.36363636 L34.4545455,9.36363636 L34.4545455,38.6363636 L34.4545455,38.6363636 Z M32.3636364,26.0909091 L26.0909091,26.0909091 L26.0909091,15.6363636 L21.9090909,15.6363636 L21.9090909,26.0909091 L15.6363636,26.0909091 L24,34.4545455 L32.3636364,26.0909091 L32.3636364,26.0909091 Z" id="Shape" sketch:type="MSShapeGroup"></path>
        </g>
    </g>
</svg>